<svg width="60" height="60" viewBox="0 0 60 60" fill="none" xmlns="http://www.w3.org/2000/svg">
<circle cx="30" cy="30" r="30" fill="white"/>
<path d="M30.8497 13.3518L37.6476 20.1496C38.1175 20.6195 38.1175 21.3793 37.6476 21.8441L36.518 22.9738C36.0481 23.4436 35.2883 23.4436 34.8235 22.9738L30 18.1603L25.1815 22.9788C24.7117 23.4486 23.9519 23.4486 23.487 22.9788L22.3524 21.8491C21.8825 21.3793 21.8825 20.6195 22.3524 20.1546L29.1503 13.3568C29.6201 12.8819 30.3799 12.8819 30.8497 13.3518Z" fill="#00AED6"/>
<path d="M20.346 43V34.698H17.392V33.2H24.924V34.698H21.984V43H20.346ZM30.2581 43.224C29.3714 43.224 28.5781 43.014 27.8781 42.594C27.1874 42.174 26.6461 41.5813 26.2541 40.816C25.8621 40.0413 25.6661 39.136 25.6661 38.1C25.6661 37.0547 25.8621 36.1493 26.2541 35.384C26.6461 34.6093 27.1874 34.012 27.8781 33.592C28.5781 33.1627 29.3714 32.948 30.2581 32.948C31.1448 32.948 31.9288 33.1627 32.6101 33.592C33.3008 34.012 33.8421 34.6093 34.2341 35.384C34.6354 36.1493 34.8361 37.0547 34.8361 38.1C34.8361 39.136 34.6354 40.0413 34.2341 40.816C33.8421 41.5813 33.3008 42.174 32.6101 42.594C31.9288 43.014 31.1448 43.224 30.2581 43.224ZM30.2581 41.656C30.8461 41.656 31.3548 41.5113 31.7841 41.222C32.2134 40.9233 32.5448 40.508 32.7781 39.976C33.0208 39.4347 33.1421 38.8093 33.1421 38.1C33.1421 37.3813 33.0208 36.756 32.7781 36.224C32.5448 35.6827 32.2134 35.2673 31.7841 34.978C31.3548 34.6793 30.8461 34.53 30.2581 34.53C29.6794 34.53 29.1708 34.6793 28.7321 34.978C28.2934 35.2673 27.9528 35.6827 27.7101 36.224C27.4768 36.756 27.3601 37.3813 27.3601 38.1C27.3601 38.8093 27.4768 39.4347 27.7101 39.976C27.9528 40.508 28.2934 40.9233 28.7321 41.222C29.1708 41.5113 29.6794 41.656 30.2581 41.656ZM36.328 43V33.2H40.808C41.7227 33.2 42.446 33.4147 42.978 33.844C43.5193 34.2733 43.79 34.9967 43.79 36.014C43.79 37.0313 43.5193 37.7593 42.978 38.198C42.446 38.6367 41.7227 38.856 40.808 38.856H37.938V43H36.328ZM37.938 37.344H40.584C41.06 37.344 41.4287 37.2413 41.69 37.036C41.9513 36.8307 42.082 36.49 42.082 36.014C42.082 35.5473 41.9513 35.2113 41.69 35.006C41.4287 34.8007 41.06 34.698 40.584 34.698H37.938V37.344Z" fill="#00AED6"/>
</svg>
